#N canvas 442 36 586 611 10;
#N canvas 320 267 144 354 envelope 0;
#X obj 24 69 random 10000;
#X obj 24 121 * 40;
#X obj 24 147 + 80;
#X obj 24 277 line~;
#X obj 24 225 del 100, f 12;
#X obj 41 199 pack 1 f, f 9;
#X obj 24 251 pack 0 f;
#X obj 24 173 t b b f f f, f 12;
#X obj 24 43 inlet;
#X obj 24 303 outlet~;
#X obj 24 95 * 0.00010001;
#X connect 0 0 10 0;
#X connect 1 0 2 0;
#X connect 2 0 7 0;
#X connect 3 0 9 0;
#X connect 4 0 6 0;
#X connect 5 0 3 0;
#X connect 6 0 3 0;
#X connect 7 0 4 0;
#X connect 7 1 5 0;
#X connect 7 2 6 1;
#X connect 7 3 5 1;
#X connect 7 4 4 1;
#X connect 8 0 0 0;
#X connect 10 0 1 0;
#X restore 81 152 pd envelope;
#X obj 66 178 *~;
#X obj 66 346 delwrite~ \$0-IADG 500;
#X obj 65 496 delread4~ \$0-IADG 100;
#X obj 66 415 *~ 1;
#X msg 158 310 clear;
#X obj 234 178 osc~;
#X obj 333 178 pack 0 200;
#X obj 333 204 line~;
#X obj 234 230 *~, f 17;
#X obj 66 52 inlet~;
#X obj 81 126 loadbang;
#N canvas 376 143 191 242 randomiser 0;
#X obj 61 69 random 10000;
#X obj 61 147 - 0.2;
#X obj 61 121 * 0.4;
#X obj 34 173 +;
#X obj 34 43 t f b;
#X obj 34 17 inlet;
#X obj 34 199 outlet;
#X obj 61 95 * 0.00010001;
#X connect 0 0 7 0;
#X connect 1 0 3 1;
#X connect 2 0 1 0;
#X connect 3 0 6 0;
#X connect 4 0 3 0;
#X connect 4 1 0 0;
#X connect 5 0 4 0;
#X connect 7 0 2 0;
#X restore 234 152 pd randomiser;
#N canvas 376 143 191 242 randomiser 0;
#X obj 61 69 random 10000;
#X obj 61 147 - 0.2;
#X obj 61 121 * 0.4;
#X obj 34 173 +;
#X obj 34 43 t f b;
#X obj 34 17 inlet;
#X obj 34 199 outlet;
#X obj 61 95 * 0.00010001;
#X connect 0 0 7 0;
#X connect 1 0 3 1;
#X connect 2 0 1 0;
#X connect 3 0 6 0;
#X connect 4 0 3 0;
#X connect 4 1 0 0;
#X connect 5 0 4 0;
#X connect 7 0 2 0;
#X restore 333 152 pd randomiser;
#N canvas 376 143 162 186 randomiser 0;
#X obj 34 43 random 10000;
#X obj 34 17 inlet;
#X obj 34 147 outlet;
#X obj 34 69 * 0.00010001;
#X obj 34 95 * 30;
#X obj 34 121 + 15;
#X connect 0 0 3 0;
#X connect 1 0 0 0;
#X connect 3 0 4 0;
#X connect 4 0 5 0;
#X connect 5 0 2 0;
#X restore 471 244 pd randomiser;
#X obj 471 270 sig~;
#X obj 234 346 +~, f 40;
#X obj 471 218 del 10;
#X obj 471 152 t b b;
#X obj 234 52 inlet;
#X obj 333 52 inlet;
#X obj 416 52 inlet;
#X obj 471 52 inlet;
#X obj 65 568 outlet~;
#X text 54 38 audio in;
#X text 291 37 LFO depth (0-1.5);
#X text 196 38 LFO Freq (0-1);
#X text 410 37 freeze;
#X text 477 37 thaw;
#X obj 264 412 float \$1;
#X obj 264 386 loadbang;
#X obj 264 438 % 2;
#X obj 264 464 t f f;
#X obj 264 490 == 1;
#X obj 302 490 == 0;
#X obj 65 542 *~;
#X obj 287 568 outlet~;
#X obj 287 542 *~;
#X connect 0 0 1 1;
#X connect 1 0 2 0;
#X connect 3 0 4 0;
#X connect 3 0 35 0;
#X connect 3 0 37 0;
#X connect 4 0 2 0;
#X connect 5 0 2 0;
#X connect 6 0 9 0;
#X connect 7 0 8 0;
#X connect 8 0 9 1;
#X connect 9 0 16 0;
#X connect 10 0 1 0;
#X connect 11 0 0 0;
#X connect 12 0 6 0;
#X connect 13 0 7 0;
#X connect 14 0 15 0;
#X connect 15 0 16 1;
#X connect 16 0 3 0;
#X connect 17 0 14 0;
#X connect 18 0 17 0;
#X connect 18 1 5 0;
#X connect 19 0 12 0;
#X connect 20 0 13 0;
#X connect 21 0 0 0;
#X connect 22 0 18 0;
#X connect 29 0 31 0;
#X connect 30 0 29 0;
#X connect 31 0 32 0;
#X connect 32 0 33 0;
#X connect 32 1 34 0;
#X connect 33 0 35 1;
#X connect 34 0 37 1;
#X connect 35 0 23 0;
#X connect 37 0 36 0;
